<svg xmlns="http://www.w3.org/2000/svg" width="1440" height="900" viewBox="0 0 1440 900"><rect width="1440" height="900" fill="#f0f2eb"/><rect width="240" height="900" fill="#e1e7da"/><rect x="40" y="40" width="120" height="20" rx="5" fill="#b0bda5"/><rect x="40" y="130" width="135" height="12" rx="6" fill="#bdc8b4"/><rect x="40" y="192" width="105" height="12" rx="6" fill="#bdc8b4"/><rect x="40" y="254" width="135" height="12" rx="6" fill="#bdc8b4"/><rect x="40" y="316" width="105" height="12" rx="6" fill="#bdc8b4"/><rect x="40" y="378" width="135" height="12" rx="6" fill="#bdc8b4"/><rect x="290" y="44" width="300" height="22" rx="6" fill="#bcc9b4"/><rect x="290" y="90" width="190" height="10" rx="5" fill="#d0d9c9"/><rect x="290" y="150" width="1030" height="68" rx="8" fill="#e3e9dd"/><rect x="320" y="176" width="220" height="12" rx="6" fill="#b8c6ad"/><rect x="1220" y="172" width="60" height="24" rx="12" fill="#b7c8aa"/><rect x="290" y="238" width="1030" height="68" rx="8" fill="#e3e9dd"/><rect x="320" y="264" width="220" height="12" rx="6" fill="#b8c6ad"/><rect x="1220" y="260" width="60" height="24" rx="12" fill="#b7c8aa"/><rect x="290" y="326" width="1030" height="68" rx="8" fill="#e3e9dd"/><rect x="320" y="352" width="220" height="12" rx="6" fill="#b8c6ad"/><rect x="1220" y="348" width="60" height="24" rx="12" fill="#b7c8aa"/><rect x="290" y="414" width="1030" height="68" rx="8" fill="#e3e9dd"/><rect x="320" y="440" width="220" height="12" rx="6" fill="#b8c6ad"/><rect x="1220" y="436" width="60" height="24" rx="12" fill="#b7c8aa"/><rect x="290" y="502" width="1030" height="68" rx="8" fill="#e3e9dd"/><rect x="320" y="528" width="220" height="12" rx="6" fill="#b8c6ad"/><rect x="1220" y="524" width="60" height="24" rx="12" fill="#b7c8aa"/><rect x="290" y="590" width="1030" height="68" rx="8" fill="#e3e9dd"/><rect x="320" y="616" width="220" height="12" rx="6" fill="#b8c6ad"/><rect x="1220" y="612" width="60" height="24" rx="12" fill="#b7c8aa"/><rect x="290" y="678" width="1030" height="68" rx="8" fill="#e3e9dd"/><rect x="320" y="704" width="220" height="12" rx="6" fill="#b8c6ad"/><rect x="1220" y="700" width="60" height="24" rx="12" fill="#b7c8aa"/></svg>